<mxfile host="app.diagrams.net" modified="2021-03-23T22:51:43.762Z" agent="5.0 (Windows NT 10.0; Win64; x64) AppleWebKit/537.36 (KHTML, like Gecko) Chrome/89.0.4389.90 Safari/537.36" etag="DPoXWCi3Ios10K4iiTh6" version="14.4.8" type="github">
  <diagram id="rz1OlzjWp0s_iBaFRuhq" name="Page-1">
    <mxGraphModel dx="1102" dy="582" grid="1" gridSize="10" guides="1" tooltips="1" connect="1" arrows="1" fold="1" page="1" pageScale="1" pageWidth="850" pageHeight="1100" math="0" shadow="0">
      <root>
        <mxCell id="0" />
        <mxCell id="1" parent="0" />
        <mxCell id="GGUQNb59tYoLwWSjv65G-9" style="edgeStyle=orthogonalEdgeStyle;rounded=0;orthogonalLoop=1;jettySize=auto;html=1;exitX=0.5;exitY=0;exitDx=0;exitDy=0;" edge="1" parent="1" source="GGUQNb59tYoLwWSjv65G-1">
          <mxGeometry relative="1" as="geometry">
            <mxPoint x="265" y="70" as="targetPoint" />
            <Array as="points">
              <mxPoint x="265" y="100" />
              <mxPoint x="265" y="100" />
            </Array>
          </mxGeometry>
        </mxCell>
        <mxCell id="GGUQNb59tYoLwWSjv65G-1" value="" style="rounded=0;whiteSpace=wrap;html=1;" vertex="1" parent="1">
          <mxGeometry x="160" y="30" width="210" height="520" as="geometry" />
        </mxCell>
        <mxCell id="GGUQNb59tYoLwWSjv65G-2" value="" style="rounded=0;whiteSpace=wrap;html=1;" vertex="1" parent="1">
          <mxGeometry x="550" y="35" width="210" height="510" as="geometry" />
        </mxCell>
        <mxCell id="GGUQNb59tYoLwWSjv65G-5" value="" style="rounded=0;whiteSpace=wrap;html=1;" vertex="1" parent="1">
          <mxGeometry x="175" y="190" width="180" height="60" as="geometry" />
        </mxCell>
        <mxCell id="GGUQNb59tYoLwWSjv65G-6" value="" style="rounded=0;whiteSpace=wrap;html=1;" vertex="1" parent="1">
          <mxGeometry x="175" y="260" width="180" height="60" as="geometry" />
        </mxCell>
        <mxCell id="GGUQNb59tYoLwWSjv65G-7" value="" style="rounded=0;whiteSpace=wrap;html=1;" vertex="1" parent="1">
          <mxGeometry x="175" y="340" width="180" height="60" as="geometry" />
        </mxCell>
        <mxCell id="GGUQNb59tYoLwWSjv65G-8" value="" style="rounded=0;whiteSpace=wrap;html=1;" vertex="1" parent="1">
          <mxGeometry x="175" y="410" width="180" height="60" as="geometry" />
        </mxCell>
        <mxCell id="GGUQNb59tYoLwWSjv65G-10" value="" style="rounded=0;whiteSpace=wrap;html=1;" vertex="1" parent="1">
          <mxGeometry x="175" y="480" width="180" height="60" as="geometry" />
        </mxCell>
        <mxCell id="GGUQNb59tYoLwWSjv65G-11" value="" style="rounded=0;whiteSpace=wrap;html=1;" vertex="1" parent="1">
          <mxGeometry x="175" y="120" width="180" height="60" as="geometry" />
        </mxCell>
        <mxCell id="GGUQNb59tYoLwWSjv65G-12" value="" style="rounded=0;whiteSpace=wrap;html=1;" vertex="1" parent="1">
          <mxGeometry x="175" y="50" width="180" height="60" as="geometry" />
        </mxCell>
        <mxCell id="GGUQNb59tYoLwWSjv65G-13" value="" style="rounded=0;whiteSpace=wrap;html=1;" vertex="1" parent="1">
          <mxGeometry x="570" y="60" width="170" height="20" as="geometry" />
        </mxCell>
        <mxCell id="GGUQNb59tYoLwWSjv65G-14" value="" style="rounded=0;whiteSpace=wrap;html=1;" vertex="1" parent="1">
          <mxGeometry x="570" y="100" width="170" height="20" as="geometry" />
        </mxCell>
        <mxCell id="GGUQNb59tYoLwWSjv65G-15" value="" style="rounded=0;whiteSpace=wrap;html=1;" vertex="1" parent="1">
          <mxGeometry x="570" y="140" width="170" height="20" as="geometry" />
        </mxCell>
        <mxCell id="GGUQNb59tYoLwWSjv65G-16" value="" style="rounded=0;whiteSpace=wrap;html=1;" vertex="1" parent="1">
          <mxGeometry x="570" y="180" width="170" height="20" as="geometry" />
        </mxCell>
        <mxCell id="GGUQNb59tYoLwWSjv65G-17" value="" style="rounded=0;whiteSpace=wrap;html=1;" vertex="1" parent="1">
          <mxGeometry x="570" y="220" width="170" height="20" as="geometry" />
        </mxCell>
        <mxCell id="GGUQNb59tYoLwWSjv65G-18" value="" style="rounded=0;whiteSpace=wrap;html=1;" vertex="1" parent="1">
          <mxGeometry x="570" y="260" width="170" height="20" as="geometry" />
        </mxCell>
        <mxCell id="GGUQNb59tYoLwWSjv65G-19" value="" style="rounded=0;whiteSpace=wrap;html=1;" vertex="1" parent="1">
          <mxGeometry x="570" y="300" width="170" height="20" as="geometry" />
        </mxCell>
        <mxCell id="GGUQNb59tYoLwWSjv65G-20" value="" style="rounded=0;whiteSpace=wrap;html=1;" vertex="1" parent="1">
          <mxGeometry x="570" y="340" width="170" height="20" as="geometry" />
        </mxCell>
        <mxCell id="GGUQNb59tYoLwWSjv65G-21" value="" style="rounded=0;whiteSpace=wrap;html=1;" vertex="1" parent="1">
          <mxGeometry x="570" y="380" width="170" height="20" as="geometry" />
        </mxCell>
        <mxCell id="GGUQNb59tYoLwWSjv65G-22" value="" style="rounded=0;whiteSpace=wrap;html=1;" vertex="1" parent="1">
          <mxGeometry x="570" y="420" width="170" height="20" as="geometry" />
        </mxCell>
        <mxCell id="GGUQNb59tYoLwWSjv65G-23" value="" style="rounded=0;whiteSpace=wrap;html=1;" vertex="1" parent="1">
          <mxGeometry x="570" y="460" width="170" height="20" as="geometry" />
        </mxCell>
        <mxCell id="GGUQNb59tYoLwWSjv65G-24" value="" style="rounded=0;whiteSpace=wrap;html=1;" vertex="1" parent="1">
          <mxGeometry x="570" y="500" width="170" height="20" as="geometry" />
        </mxCell>
        <mxCell id="GGUQNb59tYoLwWSjv65G-25" value="Weekly Schedule" style="text;html=1;strokeColor=none;fillColor=none;align=center;verticalAlign=middle;whiteSpace=wrap;rounded=0;" vertex="1" parent="1">
          <mxGeometry x="210" y="30" width="100" height="20" as="geometry" />
        </mxCell>
        <mxCell id="GGUQNb59tYoLwWSjv65G-26" value="Monthly Food Availability" style="text;html=1;strokeColor=none;fillColor=none;align=center;verticalAlign=middle;whiteSpace=wrap;rounded=0;" vertex="1" parent="1">
          <mxGeometry x="570" y="40" width="170" height="20" as="geometry" />
        </mxCell>
      </root>
    </mxGraphModel>
  </diagram>
</mxfile>
